<svg width="24" height="24" viewBox="0 0 24 24" fill="none" xmlns="http://www.w3.org/2000/svg">
<path d="M19.3299 5.68L13.0599 2.3C12.3999 1.94 11.5999 1.94 10.9399 2.3L4.66993 5.68C4.20993 5.93 3.92993 6.41 3.92993 6.96C3.92993 7.5 4.20993 7.99 4.66993 8.24L10.9399 11.62C11.2699 11.8 11.6399 11.89 11.9999 11.89C12.3599 11.89 12.7299 11.8 13.0599 11.62L19.3299 8.24C19.7899 7.99 20.0699 7.51 20.0699 6.96C20.0699 6.41 19.7899 5.93 19.3299 5.68Z" fill="#0A061E"/>
<path opacity="0.4" d="M9.91 12.79L4.07 9.87C3.62 9.65 3.1 9.67 2.68 9.93C2.25 10.2 2 10.65 2 11.15V16.66C2 17.61 2.53 18.47 3.38 18.9L9.21 21.82C9.41 21.92 9.63 21.97 9.85 21.97C10.11 21.97 10.37 21.9 10.6 21.76C11.03 21.5 11.28 21.04 11.28 20.54V15.03C11.29 14.07 10.76 13.21 9.91 12.79Z" fill="#0A061E"/>
<path opacity="0.4" d="M21.32 9.93C20.89 9.67 20.37 9.64 19.93 9.87L14.1 12.79C13.25 13.22 12.72 14.07 12.72 15.03V20.54C12.72 21.04 12.97 21.5 13.4 21.76C13.63 21.9 13.89 21.97 14.15 21.97C14.37 21.97 14.59 21.92 14.79 21.82L20.62 18.9C21.47 18.47 22 17.62 22 16.66V11.15C22 10.65 21.75 10.2 21.32 9.93Z" fill="#0A061E"/>
</svg>
