<svg width="60" height="60" viewBox="0 0 60 60" fill="none" xmlns="http://www.w3.org/2000/svg">
<rect width="60" height="60" rx="30" fill="#CABDFF"/>
<path opacity="0.4" d="M25.5 15C21.57 15 18.375 18.195 18.375 22.125C18.375 25.98 21.39 29.1 25.32 29.235C25.44 29.22 25.56 29.22 25.65 29.235C25.68 29.235 25.695 29.235 25.725 29.235C25.74 29.235 25.74 29.235 25.755 29.235C29.595 29.1 32.61 25.98 32.625 22.125C32.625 18.195 29.43 15 25.5 15Z" fill="#633DFF"/>
<path d="M33.1199 33.225C28.9349 30.435 22.1099 30.435 17.8949 33.225C15.9899 34.5 14.9399 36.225 14.9399 38.07C14.9399 39.915 15.9899 41.625 17.8799 42.885C19.9799 44.295 22.7399 45 25.4999 45C28.2599 45 31.0199 44.295 33.1199 42.885C35.0099 41.61 36.0599 39.9 36.0599 38.04C36.0449 36.195 35.0099 34.485 33.1199 33.225Z" fill="#633DFF"/>
<path opacity="0.4" d="M41.985 23.01C42.225 25.92 40.155 28.47 37.29 28.815C37.275 28.815 37.275 28.815 37.26 28.815H37.215C37.125 28.815 37.035 28.815 36.96 28.845C35.505 28.92 34.17 28.455 33.165 27.6C34.71 26.22 35.595 24.15 35.415 21.9C35.31 20.685 34.89 19.575 34.26 18.63C34.83 18.345 35.49 18.165 36.165 18.105C39.105 17.85 41.73 20.04 41.985 23.01Z" fill="#633DFF"/>
<path d="M44.9851 36.885C44.8651 38.34 43.9351 39.6 42.3751 40.455C40.8751 41.28 38.9851 41.67 37.1101 41.625C38.1901 40.65 38.8201 39.435 38.9401 38.145C39.0901 36.285 38.2051 34.5 36.4351 33.075C35.4301 32.28 34.2601 31.65 32.9851 31.185C36.3001 30.225 40.4701 30.87 43.0351 32.94C44.4151 34.05 45.1201 35.445 44.9851 36.885Z" fill="#633DFF"/>
</svg>
