<svg width="26" height="26" viewBox="0 0 26 26" fill="none" xmlns="http://www.w3.org/2000/svg">
<path d="M23.8333 20.5833V23.8333H2.16663V20.5833C2.16663 19.9875 2.65413 19.5 3.24996 19.5H22.75C23.3458 19.5 23.8333 19.9875 23.8333 20.5833Z" fill="#B57700" stroke="#B57700" stroke-width="1.5" stroke-miterlimit="10" stroke-linecap="round" stroke-linejoin="round"/>
<path opacity="0.6" d="M8.66671 11.9166H4.33337V19.5H8.66671V11.9166Z" fill="#B57700"/>
<path opacity="0.4" d="M13 11.9166H8.66663V19.5H13V11.9166Z" fill="#B57700"/>
<path opacity="0.6" d="M17.3333 11.9166H13V19.5H17.3333V11.9166Z" fill="#B57700"/>
<path opacity="0.4" d="M21.6667 11.9166H17.3334V19.5H21.6667V11.9166Z" fill="#B57700"/>
<path d="M24.9167 24.6459H1.08337C0.639207 24.6459 0.270874 24.2775 0.270874 23.8334C0.270874 23.3892 0.639207 23.0209 1.08337 23.0209H24.9167C25.3609 23.0209 25.7292 23.3892 25.7292 23.8334C25.7292 24.2775 25.3609 24.6459 24.9167 24.6459Z" fill="#B57700"/>
<path d="M23.1508 6.22919L13.4008 2.32922C13.1841 2.24255 12.8158 2.24255 12.5991 2.32922L2.84913 6.22919C2.46996 6.38086 2.16663 6.82502 2.16663 7.23669V10.8334C2.16663 11.4292 2.65413 11.9167 3.24996 11.9167H22.75C23.3458 11.9167 23.8333 11.4292 23.8333 10.8334V7.23669C23.8333 6.82502 23.53 6.38086 23.1508 6.22919ZM13 9.20836C12.1008 9.20836 11.375 8.48253 11.375 7.58336C11.375 6.6842 12.1008 5.95836 13 5.95836C13.8991 5.95836 14.625 6.6842 14.625 7.58336C14.625 8.48253 13.8991 9.20836 13 9.20836Z" fill="#B57700"/>
</svg>
