<svg width="26" height="26" viewBox="0 0 26 26" fill="none" xmlns="http://www.w3.org/2000/svg">
<path opacity="0.4" d="M23.8333 8.66669V17.5392C23.8333 21.4825 21.4825 23.8334 17.5391 23.8334H8.46079C4.51746 23.8334 2.16663 21.4825 2.16663 17.5392V8.67752L23.8333 8.66669Z" fill="#633DFF"/>
<path d="M9.74996 19.2292C9.63079 19.2292 9.50079 19.1967 9.39246 19.1425C8.55829 18.72 7.84329 18.0917 7.32329 17.3117C6.88996 16.6617 6.88996 15.8275 7.32329 15.1775C7.84329 14.3975 8.55829 13.7692 9.39246 13.3575C9.79329 13.1517 10.2808 13.325 10.4866 13.7258C10.6925 14.1267 10.53 14.6142 10.1183 14.82C9.53329 15.1125 9.03496 15.5567 8.67746 16.0983C8.61246 16.1958 8.61246 16.3258 8.67746 16.4342C9.03496 16.9758 9.53329 17.42 10.1183 17.7125C10.5191 17.9183 10.6816 18.4058 10.4866 18.8067C10.335 19.0667 10.0425 19.2292 9.74996 19.2292Z" fill="#633DFF"/>
<path d="M16.4775 19.2292C16.1742 19.2292 15.8925 19.0667 15.7517 18.785C15.5458 18.3842 15.7083 17.8967 16.12 17.6909C16.705 17.3984 17.2033 16.9542 17.5608 16.4125C17.6258 16.315 17.6258 16.185 17.5608 16.0767C17.2033 15.535 16.705 15.0909 16.12 14.7984C15.7192 14.5925 15.5567 14.105 15.7517 13.7042C15.9575 13.3033 16.445 13.1409 16.8458 13.3359C17.68 13.7584 18.395 14.3867 18.915 15.1667C19.3483 15.8167 19.3483 16.6509 18.915 17.3009C18.395 18.0809 17.68 18.7092 16.8458 19.1209C16.7158 19.1967 16.5967 19.2292 16.4775 19.2292Z" fill="#633DFF"/>
<path d="M23.8333 8.46085V8.66669L2.16663 8.67752V8.46085C2.16663 4.51752 4.51746 2.16669 8.46079 2.16669H17.5391C21.4825 2.16669 23.8333 4.51752 23.8333 8.46085Z" fill="#633DFF"/>
</svg>
