<svg width="36" height="36" viewBox="0 0 36 36" fill="none" xmlns="http://www.w3.org/2000/svg">
<path opacity="0.6" d="M26.685 15.705V18H3V15.705C3 12.225 5.835 9.39 9.315 9.39H20.37C23.85 9.39 26.685 12.225 26.685 15.705Z" fill="#008A3E"/>
<path opacity="0.4" d="M26.685 18V26.685C26.685 30.165 23.85 33 20.37 33H9.315C5.835 33 3 30.165 3 26.685V18H26.685Z" fill="#008A3E"/>
<path d="M8.25 7.68C7.635 7.68 7.125 7.17 7.125 6.555V3.93C7.125 3.315 7.635 2.805 8.25 2.805C8.865 2.805 9.375 3.315 9.375 3.93V6.555C9.375 7.185 8.865 7.68 8.25 7.68Z" fill="#008A3E"/>
<path d="M14.25 7.68C13.635 7.68 13.125 7.17 13.125 6.555V3.93C13.125 3.315 13.635 2.805 14.25 2.805C14.865 2.805 15.375 3.315 15.375 3.93V6.555C15.375 7.185 14.865 7.68 14.25 7.68Z" fill="#008A3E"/>
<path d="M20.25 7.68C19.635 7.68 19.125 7.17 19.125 6.555V3.93C19.125 3.315 19.635 2.805 20.25 2.805C20.865 2.805 21.375 3.315 21.375 3.93V6.555C21.375 7.185 20.865 7.68 20.25 7.68Z" fill="#008A3E"/>
<path d="M32.4749 21.48C32.4749 24.705 29.8649 27.315 26.6399 27.315V15.63C29.8499 15.63 32.4749 18.255 32.4749 21.48Z" fill="#008A3E"/>
</svg>
