<svg width="36" height="36" viewBox="0 0 36 36" fill="none" xmlns="http://www.w3.org/2000/svg">
<path d="M33 8.56499V22.935C33 27.075 29.64 30.435 25.5 30.435H10.5C9.80998 30.435 9.14998 30.345 8.50498 30.165C7.57498 29.91 7.27498 28.725 7.96498 28.035L23.91 12.09C24.24 11.76 24.735 11.685 25.2 11.775C25.68 11.865 26.205 11.73 26.58 11.37L30.435 7.49999C31.845 6.08999 33 6.55499 33 8.56499Z" fill="#633DFF"/>
<path opacity="0.4" d="M21.96 11.04L6.255 26.745C5.535 27.465 4.335 27.285 3.855 26.385C3.3 25.365 3 24.18 3 22.935V8.565C3 6.555 4.155 6.09 5.565 7.5L9.435 11.385C10.02 11.955 10.98 11.955 11.565 11.385L16.935 6C17.52 5.415 18.48 5.415 19.065 6L21.975 8.91C22.545 9.495 22.545 10.455 21.96 11.04Z" fill="#633DFF"/>
</svg>
