<svg width="26" height="26" viewBox="0 0 26 26" fill="none" xmlns="http://www.w3.org/2000/svg">
<path opacity="0.4" d="M23.8333 21.7425V13.195C23.8333 7.12835 18.9583 2.16669 13 2.16669C7.04163 2.16669 2.16663 7.12835 2.16663 13.195V21.7425C2.16663 23.1075 2.97911 23.4759 3.97577 22.5659L5.05911 21.58C5.45994 21.2117 6.10997 21.2117 6.5108 21.58L8.67747 23.5625C9.0783 23.9309 9.72827 23.9309 10.1291 23.5625L12.2958 21.58C12.6966 21.2117 13.3466 21.2117 13.7475 21.58L15.9141 23.5625C16.315 23.9309 16.965 23.9309 17.3658 23.5625L19.5325 21.58C19.9333 21.2117 20.5833 21.2117 20.9841 21.58L22.0675 22.5659C23.0208 23.4759 23.8333 23.1075 23.8333 21.7425Z" fill="#0499DA"/>
<path d="M13 17.4092C11.2992 17.4092 9.59832 16.8784 8.17915 15.8167C7.82165 15.5459 7.74586 15.0367 8.01669 14.6792C8.28753 14.3217 8.79668 14.2458 9.15418 14.5167C11.4183 16.2175 14.5817 16.2175 16.8458 14.5167C17.2033 14.2458 17.7125 14.3217 17.9833 14.6792C18.2541 15.0367 18.1783 15.5459 17.8208 15.8167C16.4017 16.8784 14.7008 17.4092 13 17.4092Z" fill="#0499DA"/>
<path d="M13 12.3283C14.4239 12.3283 15.5783 11.1739 15.5783 9.74997C15.5783 8.326 14.4239 7.17163 13 7.17163C11.576 7.17163 10.4216 8.326 10.4216 9.74997C10.4216 11.1739 11.576 12.3283 13 12.3283Z" fill="#0499DA"/>
</svg>
