<svg width="24" height="24" viewBox="0 0 24 24" fill="none" xmlns="http://www.w3.org/2000/svg">
<path opacity="0.4" d="M16.19 22H7.82001C4.18001 22 2.01001 19.83 2.01001 16.19V7.82001C2.01001 4.18001 4.18001 2.01001 7.82001 2.01001H16.19C19.83 2.01001 22 4.18001 22 7.82001V16.19C22 19.83 19.83 22 16.19 22Z" fill="#0A061E"/>
<path d="M16.41 9.82999C15.8 11.57 14.16 12.74 12.32 12.74C12.31 12.74 12.31 12.74 12.3 12.74L10.24 12.73C10.24 12.73 10.24 12.73 10.23 12.73C9.46998 12.73 8.80999 13.24 8.60999 13.97C9.49999 14.25 10.15 15.08 10.15 16.06C10.15 17.27 9.16001 18.26 7.95001 18.26C6.74001 18.26 5.75 17.27 5.75 16.06C5.75 15.17 6.28999 14.4 7.04999 14.06V9.72C6.28999 9.42 5.75 8.68001 5.75 7.82001C5.75 6.69001 6.66999 5.76999 7.79999 5.76999C8.92999 5.76999 9.84998 6.69001 9.84998 7.82001C9.84998 8.69001 9.30999 9.42 8.54999 9.72V11.74C9.03999 11.43 9.61998 11.25 10.23 11.25H10.24L12.3 11.26C13.48 11.3 14.53 10.54 14.95 9.44C14.46 9.06 14.14 8.48001 14.14 7.82001C14.14 6.69001 15.06 5.76999 16.19 5.76999C17.32 5.76999 18.24 6.69001 18.24 7.82001C18.25 8.86001 17.44 9.71999 16.41 9.82999Z" fill="#0A061E"/>
</svg>
