<svg width="20" height="21" viewBox="0 0 20 21" fill="none" xmlns="http://www.w3.org/2000/svg">
<path d="M10.8417 2.93335L15.7584 5.11668C17.1751 5.74168 17.1751 6.77502 15.7584 7.40002L10.8417 9.58335C10.2834 9.83335 9.36672 9.83335 8.80839 9.58335L3.89172 7.40002C2.47506 6.77502 2.47506 5.74168 3.89172 5.11668L8.80839 2.93335C9.36672 2.68335 10.2834 2.68335 10.8417 2.93335Z" stroke="#0A061E" stroke-width="2" stroke-linecap="round" stroke-linejoin="round"/>
<path d="M2.5 9.66663C2.5 10.3666 3.025 11.175 3.66667 11.4583L9.325 13.975C9.75833 14.1666 10.25 14.1666 10.675 13.975L16.3333 11.4583C16.975 11.175 17.5 10.3666 17.5 9.66663" stroke="#0A061E" stroke-width="2" stroke-linecap="round" stroke-linejoin="round"/>
<path d="M2.5 13.8334C2.5 14.6084 2.95833 15.3084 3.66667 15.625L9.325 18.1417C9.75833 18.3334 10.25 18.3334 10.675 18.1417L16.3333 15.625C17.0417 15.3084 17.5 14.6084 17.5 13.8334" stroke="#0A061E" stroke-width="2" stroke-linecap="round" stroke-linejoin="round"/>
</svg>
