<svg width="36" height="36" viewBox="0 0 36 36" fill="none" xmlns="http://www.w3.org/2000/svg">
<path d="M10.5 8.625C9.885 8.625 9.375 8.115 9.375 7.5V3C9.375 2.385 9.885 1.875 10.5 1.875C11.115 1.875 11.625 2.385 11.625 3V7.5C11.625 8.115 11.115 8.625 10.5 8.625Z" fill="#B57700"/>
<path d="M22.5 8.625C21.885 8.625 21.375 8.115 21.375 7.5V3C21.375 2.385 21.885 1.875 22.5 1.875C23.115 1.875 23.625 2.385 23.625 3V7.5C23.625 8.115 23.115 8.625 22.5 8.625Z" fill="#B57700"/>
<path opacity="0.4" d="M30 12.75V25.5C30 30 27.75 33 22.5 33H10.5C5.25 33 3 30 3 25.5V12.75C3 8.25 5.25 5.25 10.5 5.25H22.5C27.75 5.25 30 8.25 30 12.75Z" fill="#B57700"/>
<path d="M19.5 17.625H10.5C9.885 17.625 9.375 17.115 9.375 16.5C9.375 15.885 9.885 15.375 10.5 15.375H19.5C20.115 15.375 20.625 15.885 20.625 16.5C20.625 17.115 20.115 17.625 19.5 17.625Z" fill="#B57700"/>
<path d="M15 25.125H10.5C9.885 25.125 9.375 24.615 9.375 24C9.375 23.385 9.885 22.875 10.5 22.875H15C15.615 22.875 16.125 23.385 16.125 24C16.125 24.615 15.615 25.125 15 25.125Z" fill="#B57700"/>
<path d="M31.5 20.445C30.165 19.38 28.47 18.75 26.625 18.75C24.78 18.75 23.055 19.395 21.705 20.49C19.89 21.915 18.75 24.15 18.75 26.625C18.75 28.095 19.17 29.505 19.89 30.675C20.445 31.59 21.165 32.385 22.02 33C23.31 33.945 24.9 34.5 26.625 34.5C28.62 34.5 30.42 33.765 31.8 32.535C32.415 32.025 32.94 31.395 33.36 30.675C34.08 29.505 34.5 28.095 34.5 26.625C34.5 24.12 33.33 21.885 31.5 20.445ZM26.625 30.375C26.625 28.305 24.945 26.625 22.875 26.625C24.945 26.625 26.625 24.945 26.625 22.875C26.625 24.945 28.305 26.625 30.375 26.625C28.305 26.625 26.625 28.305 26.625 30.375Z" fill="#B57700"/>
</svg>
