<svg width="160" height="160" viewBox="0 0 160 160" fill="none" xmlns="http://www.w3.org/2000/svg">
<path d="M51.6667 23.3333V13.3333C51.6667 10.6 49.4001 8.33334 46.6667 8.33334C43.9334 8.33334 41.6667 10.6 41.6667 13.3333V23.7333C43.3334 23.5333 44.8667 23.3333 46.6667 23.3333H51.6667Z" fill="url(#paint0_linear_9_224)"/>
<path d="M105 23.7333V13.3333C105 10.6 102.733 8.33334 100 8.33334C97.2667 8.33334 95 10.6 95 13.3333V23.3333H100C101.8 23.3333 103.333 23.5333 105 23.7333Z" fill="url(#paint1_linear_9_224)"/>
<path d="M141.933 99.8C136.8 95.7333 130.333 93.3333 123.333 93.3333C116.333 93.3333 109.733 95.8 104.6 99.9333C97.6666 105.4 93.3333 113.933 93.3333 123.333C93.3333 128.933 94.9332 134.333 97.6666 138.733C99.7999 142.2 102.533 145.267 105.8 147.6C110.733 151.2 116.733 153.333 123.333 153.333C130.933 153.333 137.8 150.533 143.067 145.867C145.4 143.933 147.4 141.533 149 138.8C151.733 134.333 153.333 128.933 153.333 123.333C153.333 113.8 148.867 105.267 141.933 99.8ZM123.333 137.6C123.333 129.733 116.933 123.333 109.067 123.333C116.933 123.333 123.333 116.933 123.333 109.067C123.333 116.933 129.733 123.333 137.6 123.333C129.733 123.333 123.333 129.733 123.333 137.6Z" fill="url(#paint2_linear_9_224)"/>
<path d="M105 23.7333V33.3333C105 36.0667 102.733 38.3333 99.9999 38.3333C97.2666 38.3333 94.9999 36.0667 94.9999 33.3333V23.3333H51.6666V33.3333C51.6666 36.0667 49.3999 38.3333 46.6666 38.3333C43.9333 38.3333 41.6666 36.0667 41.6666 33.3333V23.7333C21.9999 25.5333 13.3333 38.2 13.3333 56.6667V113.333C13.3333 133.333 23.3333 146.667 46.6666 146.667H74.1999C79.2666 146.667 82.6666 141 81.3999 136.067C80.4666 132.467 79.9999 128.733 79.9999 125C79.9999 111.133 86.1999 98.3333 96.9333 89.8667C104.733 83.5333 114.733 80 125 80H125.267C129.467 80 133.333 76.9333 133.333 72.7333V56.6667C133.333 38.2 124.667 25.5333 105 23.7333ZM59.9999 111.667H46.6666C43.9333 111.667 41.6666 109.4 41.6666 106.667C41.6666 103.933 43.9333 101.667 46.6666 101.667H59.9999C62.7332 101.667 64.9999 103.933 64.9999 106.667C64.9999 109.4 62.7332 111.667 59.9999 111.667ZM79.9999 78.3333H46.6666C43.9333 78.3333 41.6666 76.0667 41.6666 73.3333C41.6666 70.6 43.9333 68.3333 46.6666 68.3333H79.9999C82.7333 68.3333 84.9999 70.6 84.9999 73.3333C84.9999 76.0667 82.7333 78.3333 79.9999 78.3333Z" fill="url(#paint3_linear_9_224)"/>
<defs>
<linearGradient id="paint0_linear_9_224" x1="46.6667" y1="8.33334" x2="46.6667" y2="23.7333" gradientUnits="userSpaceOnUse">
<stop stop-color="#FFD88D"/>
<stop offset="1" stop-color="white"/>
</linearGradient>
<linearGradient id="paint1_linear_9_224" x1="100" y1="8.33334" x2="100" y2="23.7333" gradientUnits="userSpaceOnUse">
<stop stop-color="#FFD88D"/>
<stop offset="1" stop-color="white"/>
</linearGradient>
<linearGradient id="paint2_linear_9_224" x1="123.333" y1="93.3333" x2="123.333" y2="153.333" gradientUnits="userSpaceOnUse">
<stop stop-color="#FFD88D"/>
<stop offset="1" stop-color="white"/>
</linearGradient>
<linearGradient id="paint3_linear_9_224" x1="73.3333" y1="23.3333" x2="73.3333" y2="146.667" gradientUnits="userSpaceOnUse">
<stop stop-color="#FFD88D"/>
<stop offset="1" stop-color="white"/>
</linearGradient>
</defs>
</svg>
