<svg width="20" height="21" viewBox="0 0 20 21" fill="none" xmlns="http://www.w3.org/2000/svg">
<path d="M17.8917 16.3334V4.66669C17.8917 3.00002 17.0583 2.16669 15.3917 2.16669H12.0583C10.3917 2.16669 9.55832 3.00002 9.55832 4.66669V16.3334C9.55832 18 10.3917 18.8334 12.0583 18.8334H15.3917C17.0583 18.8334 17.8917 18 17.8917 16.3334Z" stroke="#0A061E" stroke-width="2" stroke-linecap="round"/>
<path d="M9.55832 5.5H13.725" stroke="#0A061E" stroke-width="2" stroke-linecap="round"/>
<path d="M9.55832 15.5H12.8917" stroke="#0A061E" stroke-width="2" stroke-linecap="round"/>
<path d="M9.55832 12.125L13.725 12.1667" stroke="#0A061E" stroke-width="2" stroke-linecap="round"/>
<path d="M9.55832 8.83331H12.0583" stroke="#0A061E" stroke-width="2" stroke-linecap="round"/>
<path d="M4.575 2.16669C3.21667 2.16669 2.10834 3.27502 2.10834 4.62502V15.425C2.10834 15.8 2.26667 16.3667 2.45834 16.6917L3.14167 17.825C3.925 19.1334 5.21667 19.1334 6 17.825L6.68334 16.6917C6.875 16.3667 7.03334 15.8 7.03334 15.425V4.62502C7.03334 3.27502 5.925 2.16669 4.575 2.16669Z" stroke="#0A061E" stroke-width="2" stroke-linecap="round"/>
<path d="M7.03334 6.33331H2.10834" stroke="#0A061E" stroke-width="2" stroke-linecap="round"/>
</svg>
