<svg width="25" height="24" viewBox="0 0 25 24" fill="none" xmlns="http://www.w3.org/2000/svg">
<path d="M10.99 2.23L6 4.09999C4.85 4.52999 3.91 5.88998 3.91 7.11998V14.55C3.91 15.73 4.69001 17.28 5.64001 17.99L9.94 21.2C11.35 22.26 13.67 22.26 15.08 21.2L19.38 17.99C20.33 17.28 21.11 15.73 21.11 14.55V7.11998C21.11 5.88998 20.17 4.52999 19.02 4.09999L14.03 2.23C13.18 1.92 11.82 1.92 10.99 2.23Z" stroke="#0A061E" stroke-width="2" stroke-linecap="round" stroke-linejoin="round"/>
<path d="M12.5 10.92C12.46 10.92 12.41 10.92 12.37 10.92C11.43 10.89 10.68 10.11 10.68 9.16C10.68 8.19 11.47 7.39999 12.44 7.39999C13.41 7.39999 14.2 8.19 14.2 9.16C14.19 10.12 13.44 10.89 12.5 10.92Z" stroke="#0A061E" stroke-width="2" stroke-linecap="round" stroke-linejoin="round"/>
<path d="M10.51 13.72C9.55001 14.36 9.55001 15.41 10.51 16.05C11.6 16.78 13.39 16.78 14.48 16.05C15.44 15.41 15.44 14.36 14.48 13.72C13.4 12.99 11.61 12.99 10.51 13.72Z" stroke="#0A061E" stroke-width="2" stroke-linecap="round" stroke-linejoin="round"/>
</svg>
