<svg width="16" height="16" viewBox="0 0 16 16" fill="none" xmlns="http://www.w3.org/2000/svg">
<path d="M7.99992 1.33333C4.32659 1.33333 1.33325 4.32667 1.33325 8C1.33325 11.6733 4.32659 14.6667 7.99992 14.6667C11.6733 14.6667 14.6666 11.6733 14.6666 8C14.6666 4.32667 11.6733 1.33333 7.99992 1.33333ZM11.1866 6.46666L7.40658 10.2467C7.31325 10.34 7.18658 10.3933 7.05325 10.3933C6.91992 10.3933 6.79325 10.34 6.69992 10.2467L4.81325 8.36C4.61992 8.16667 4.61992 7.84666 4.81325 7.65333C5.00658 7.46 5.32658 7.46 5.51992 7.65333L7.05325 9.18666L10.4799 5.76C10.6733 5.56667 10.9933 5.56667 11.1866 5.76C11.3799 5.95333 11.3799 6.26666 11.1866 6.46666Z" fill="#48AE76"/>
</svg>
