<svg width="48" height="48" viewBox="0 0 48 48" fill="none" xmlns="http://www.w3.org/2000/svg">
<rect width="48" height="48" rx="24" fill="#CABDFF"/>
<path opacity="0.4" d="M21 14C18.38 14 16.25 16.13 16.25 18.75C16.25 21.32 18.26 23.4 20.88 23.49C20.96 23.48 21.04 23.48 21.1 23.49C21.12 23.49 21.13 23.49 21.15 23.49C21.16 23.49 21.16 23.49 21.17 23.49C23.73 23.4 25.74 21.32 25.75 18.75C25.75 16.13 23.62 14 21 14Z" fill="#633DFF"/>
<path d="M26.08 26.1499C23.29 24.2899 18.74 24.2899 15.93 26.1499C14.66 26.9999 13.96 28.1499 13.96 29.3799C13.96 30.6099 14.66 31.7499 15.92 32.5899C17.32 33.5299 19.16 33.9999 21 33.9999C22.84 33.9999 24.68 33.5299 26.08 32.5899C27.34 31.7399 28.04 30.5999 28.04 29.3599C28.03 28.1299 27.34 26.9899 26.08 26.1499Z" fill="#633DFF"/>
<path opacity="0.4" d="M31.99 19.3401C32.15 21.2801 30.77 22.9801 28.86 23.2101C28.85 23.2101 28.85 23.2101 28.84 23.2101H28.81C28.75 23.2101 28.69 23.2101 28.64 23.2301C27.67 23.2801 26.78 22.9701 26.11 22.4001C27.14 21.4801 27.73 20.1001 27.61 18.6001C27.54 17.7901 27.26 17.0501 26.84 16.4201C27.22 16.2301 27.66 16.1101 28.11 16.0701C30.07 15.9001 31.82 17.3601 31.99 19.3401Z" fill="#633DFF"/>
<path d="M33.99 28.5899C33.91 29.5599 33.29 30.3999 32.25 30.9699C31.25 31.5199 29.99 31.7799 28.74 31.7499C29.46 31.0999 29.88 30.2899 29.96 29.4299C30.06 28.1899 29.47 26.9999 28.29 26.0499C27.62 25.5199 26.84 25.0999 25.99 24.7899C28.2 24.1499 30.98 24.5799 32.69 25.9599C33.61 26.6999 34.08 27.6299 33.99 28.5899Z" fill="#633DFF"/>
</svg>
