<svg width="60" height="60" viewBox="0 0 60 60" fill="none" xmlns="http://www.w3.org/2000/svg">
<rect width="60" height="60" rx="30" fill="#CABDFF"/>
<path opacity="0.4" d="M30 15C26.07 15 22.875 18.195 22.875 22.125C22.875 25.98 25.89 29.1 29.82 29.235C29.94 29.22 30.06 29.22 30.15 29.235C30.18 29.235 30.195 29.235 30.225 29.235C30.24 29.235 30.24 29.235 30.255 29.235C34.095 29.1 37.11 25.98 37.125 22.125C37.125 18.195 33.93 15 30 15Z" fill="#633DFF"/>
<path d="M37.62 33.2249C33.435 30.4349 26.61 30.4349 22.395 33.2249C20.49 34.4999 19.44 36.2249 19.44 38.0699C19.44 39.9149 20.49 41.6249 22.38 42.8849C24.48 44.2949 27.24 44.9999 30 44.9999C32.76 44.9999 35.52 44.2949 37.62 42.8849C39.51 41.6099 40.56 39.8999 40.56 38.0399C40.545 36.1949 39.51 34.4849 37.62 33.2249Z" fill="#633DFF"/>
</svg>
