<svg width="150" height="48" viewBox="0 0 150 48" fill="none" xmlns="http://www.w3.org/2000/svg">
<path d="M26.9296 38.5339C26.9727 34.1282 25.8557 30.5455 24.4349 30.5315C23.014 30.5177 21.8273 34.078 21.7843 38.4836C21.7412 42.8893 22.8581 46.4722 24.2789 46.486C25.6998 46.4999 26.8866 42.9396 26.9296 38.5339Z" fill="#6F4FFF"/>
<path d="M18.6891 37.5333C21.1075 33.8504 22.105 30.2325 20.9173 29.4526C19.7295 28.6727 16.8062 31.026 14.3879 34.709C11.9696 38.3919 10.9721 42.0097 12.1598 42.7897C13.3476 43.5696 16.2708 41.2162 18.6891 37.5333Z" fill="#6F4FFF"/>
<path d="M12.288 32.2493C16.3137 30.4587 19.1089 27.9546 18.5314 26.6563C17.954 25.358 14.2224 25.7572 10.1968 27.5479C6.17114 29.3385 3.37588 31.8425 3.95337 33.1408C4.53085 34.4391 8.2624 34.04 12.288 32.2493Z" fill="#6F4FFF"/>
<path d="M18.0482 23.0155C18.2644 21.6111 14.9095 19.9293 10.5549 19.259C6.20027 18.5888 2.49492 19.184 2.27877 20.5883C2.06261 21.9927 5.41751 23.6745 9.77214 24.3447C14.1267 25.015 17.8321 24.4198 18.0482 23.0155Z" fill="#6F4FFF"/>
<path d="M19.6117 19.6699C20.5527 18.6053 18.6392 15.3769 15.3379 12.4592C12.0365 9.54145 8.59743 8.03928 7.65645 9.10398C6.71548 10.1687 8.62895 13.3971 11.9303 16.3148C15.2317 19.2325 18.6708 20.7346 19.6117 19.6699Z" fill="#6F4FFF"/>
<path d="M22.7253 17.7147C24.0926 17.3278 24.2284 13.5774 23.0288 9.33796C21.8292 5.09851 19.7483 1.9754 18.3811 2.36229C17.0138 2.74918 16.878 6.49955 18.0776 10.739C19.2772 14.9784 21.3581 18.1016 22.7253 17.7147Z" fill="#6F4FFF"/>
<path d="M31.1801 10.8709C32.4631 6.65597 32.4013 2.90363 31.0419 2.48987C29.6826 2.07609 27.5405 5.15755 26.2575 9.37252C24.9745 13.5875 25.0364 17.3398 26.3957 17.7536C27.7551 18.1673 29.8971 15.0859 31.1801 10.8709Z" fill="#6F4FFF"/>
<path d="M37.2213 16.5662C40.5791 13.7136 42.5554 10.5232 41.6353 9.44038C40.7154 8.3575 37.2475 9.79219 33.8899 12.6447C30.5321 15.4974 28.5559 18.6877 29.4759 19.7706C30.3958 20.8535 33.8636 19.4189 37.2213 16.5662Z" fill="#6F4FFF"/>
<path d="M39.2189 24.6258C43.586 24.0416 46.9733 22.4263 46.7849 21.0179C46.5965 19.6095 42.9036 18.9415 38.5365 19.5256C34.1696 20.1099 30.7821 21.7252 30.9706 23.1336C31.159 24.5419 34.8519 25.2101 39.2189 24.6258Z" fill="#6F4FFF"/>
<path d="M44.8524 33.5434C45.4554 32.2568 42.7101 29.6981 38.7205 27.8284C34.731 25.9587 31.008 25.4861 30.4051 26.7727C29.8021 28.0594 32.5474 30.618 36.537 32.4877C40.5264 34.3573 44.2494 34.8301 44.8524 33.5434Z" fill="#6F4FFF"/>
<path d="M36.4605 43.0367C37.6634 42.2804 36.7374 38.6435 34.3922 34.9137C32.047 31.1838 29.1707 28.7733 27.9678 29.5296C26.7649 30.2859 27.6909 33.9227 30.0361 37.6526C32.3813 41.3825 35.2577 43.7931 36.4605 43.0367Z" fill="#6F4FFF"/>
<path d="M63.75 30.09V34.5H61.44C59.48 34.5 57.95 34.02 56.85 33.06C55.77 32.08 55.23 30.47 55.23 28.23V22.08H52.98V17.76H55.23V13.65H60.36V17.76H63.72V22.08H60.36V28.32C60.36 28.98 60.49 29.44 60.75 29.7C61.03 29.96 61.49 30.09 62.13 30.09H63.75ZM72.9933 17.55C74.2733 17.55 75.3733 17.84 76.2933 18.42C77.2133 19 77.8933 19.79 78.3333 20.79V17.76H83.4333V34.5H78.3333V31.47C77.8933 32.47 77.2133 33.26 76.2933 33.84C75.3733 34.42 74.2733 34.71 72.9933 34.71C71.6133 34.71 70.3733 34.37 69.2733 33.69C68.1933 32.99 67.3333 31.99 66.6933 30.69C66.0733 29.39 65.7633 27.87 65.7633 26.13C65.7633 24.37 66.0733 22.85 66.6933 21.57C67.3333 20.27 68.1933 19.28 69.2733 18.6C70.3733 17.9 71.6133 17.55 72.9933 17.55ZM74.6433 22.05C73.5433 22.05 72.6533 22.41 71.9733 23.13C71.3133 23.85 70.9833 24.85 70.9833 26.13C70.9833 27.41 71.3133 28.41 71.9733 29.13C72.6533 29.85 73.5433 30.21 74.6433 30.21C75.7233 30.21 76.6033 29.84 77.2833 29.1C77.9833 28.36 78.3333 27.37 78.3333 26.13C78.3333 24.87 77.9833 23.88 77.2833 23.16C76.6033 22.42 75.7233 22.05 74.6433 22.05ZM93.0553 17.55C95.1753 17.55 96.8653 18.08 98.1253 19.14C99.4053 20.2 100.205 21.6 100.525 23.34H95.7253C95.5853 22.66 95.2653 22.13 94.7653 21.75C94.2853 21.35 93.6753 21.15 92.9353 21.15C92.3553 21.15 91.9153 21.28 91.6153 21.54C91.3153 21.78 91.1653 22.13 91.1653 22.59C91.1653 23.11 91.4353 23.5 91.9753 23.76C92.5353 24.02 93.4053 24.28 94.5853 24.54C95.8653 24.84 96.9153 25.15 97.7353 25.47C98.5553 25.77 99.2653 26.27 99.8653 26.97C100.465 27.67 100.765 28.61 100.765 29.79C100.765 30.75 100.505 31.6 99.9853 32.34C99.4653 33.08 98.7153 33.66 97.7353 34.08C96.7553 34.5 95.5953 34.71 94.2553 34.71C91.9953 34.71 90.1853 34.21 88.8253 33.21C87.4653 32.21 86.6353 30.78 86.3353 28.92H91.2853C91.3653 29.64 91.6653 30.19 92.1853 30.57C92.7253 30.95 93.4153 31.14 94.2553 31.14C94.8353 31.14 95.2753 31.01 95.5753 30.75C95.8753 30.47 96.0253 30.11 96.0253 29.67C96.0253 29.09 95.7453 28.68 95.1853 28.44C94.6453 28.18 93.7553 27.91 92.5153 27.63C91.2753 27.37 90.2553 27.09 89.4553 26.79C88.6553 26.49 87.9653 26.01 87.3853 25.35C86.8053 24.67 86.5153 23.75 86.5153 22.59C86.5153 21.09 87.0853 19.88 88.2253 18.96C89.3653 18.02 90.9753 17.55 93.0553 17.55ZM113.746 34.5L108.736 27.39V34.5H103.606V12.3H108.736V24.48L113.746 17.76H119.776L113.026 26.13L119.926 34.5H113.746ZM121.319 13.05C121.319 12.27 121.599 11.63 122.159 11.13C122.719 10.61 123.459 10.35 124.379 10.35C125.299 10.35 126.039 10.61 126.599 11.13C127.159 11.63 127.439 12.27 127.439 13.05C127.439 13.81 127.159 14.45 126.599 14.97C126.039 15.47 125.299 15.72 124.379 15.72C123.459 15.72 122.719 15.47 122.159 14.97C121.599 14.45 121.319 13.81 121.319 13.05ZM126.929 17.76V34.5H121.799V17.76H126.929ZM136.831 17.55C138.111 17.55 139.211 17.84 140.131 18.42C141.051 19 141.731 19.79 142.171 20.79V17.76H147.271V34.5H142.171V31.47C141.731 32.47 141.051 33.26 140.131 33.84C139.211 34.42 138.111 34.71 136.831 34.71C135.451 34.71 134.211 34.37 133.111 33.69C132.031 32.99 131.171 31.99 130.531 30.69C129.911 29.39 129.601 27.87 129.601 26.13C129.601 24.37 129.911 22.85 130.531 21.57C131.171 20.27 132.031 19.28 133.111 18.6C134.211 17.9 135.451 17.55 136.831 17.55ZM138.481 22.05C137.381 22.05 136.491 22.41 135.811 23.13C135.151 23.85 134.821 24.85 134.821 26.13C134.821 27.41 135.151 28.41 135.811 29.13C136.491 29.85 137.381 30.21 138.481 30.21C139.561 30.21 140.441 29.84 141.121 29.1C141.821 28.36 142.171 27.37 142.171 26.13C142.171 24.87 141.821 23.88 141.121 23.16C140.441 22.42 139.561 22.05 138.481 22.05Z" fill="#0A061E"/>
</svg>
